<svg xmlns="http://www.w3.org/2000/svg" viewBox="0 0 1277.02 143"><defs><style>.cls-1{fill:blue;stroke:blue;stroke-miterlimit:10;stroke-width:2px;opacity:0.58;}</style></defs><title>Asset 6</title><g id="Layer_2" data-name="Layer 2"><g id="Layer_3" data-name="Layer 3"><path class="cls-1" d="M12,137H53c7,0,7-3,7-7,0-6-4.92-7-11-7H22a3.81,3.81,0,0,1-3.81-4c.47-12,1.84-47.38,1.84-68,0-31,1-43-9-43C0,8,1,22,1,51c0,14.78,0,50.35.82,70.14C2.18,129.47-1,137,12,137Z"/><path class="cls-1" d="M499.52,138h41c7,0,7-3,7-7,0-5-4.92-7-11-7h-27a3.81,3.81,0,0,1-3.81-4c.47-12,1.84-47.38,1.84-68,0-31,1.08-43-9-43-9.92,0-11,14-11,43,0,14.78,1,50.35,1.82,70.14C489.67,130.47,489.6,138,499.52,138Z"/><path class="cls-1" d="M193.76,63c0-46.79-12.32-62-45-62-30,0-38,34.1-38,66,0,24.46,2,72,43,72C188.76,139,193.76,86.4,193.76,63Zm-39,60c-27.89,0-24-34.67-24-57s5.35-51,20-51c29,0,25,30.25,25,52C175.76,86.25,172.76,123,154.76,123Z"/><path class="cls-1" d="M928.21,71.94C928.21,25.14,909.73,6,877,6c-22.36,0-39.71,19.14-39.71,51,0,24.46,3.39,85,48.22,85C922.73,142,928.21,95.33,928.21,71.94Zm-42.59,59.24c-27.89,0-30.46-48.67-30.46-71S864.29,20,876,20c30,0,33.4,27,33.4,48.73C909.38,88,908.73,131.17,885.62,131.17Z"/><path class="cls-1" d="M280.84,5c13.7,0,23.7,8,20.7,13s-11.69-1-17.7-1c-23.3,0-27.3,30-27.3,55,0,21,3,53,29.3,53,11.7,0,17.16-10,22.7-6,8.11,5.85-11,19-23.7,19-25.3,0-47.3-11-47.3-66C237.54,4,269,5,280.84,5Z"/><path class="cls-1" d="M435.17,126c-1.13-4-22.08-88.25-24-97-2.85-13-4.85-24-19.85-24-11,0-14,14-17,27-2.51,10.89-16.25,82.13-18,90-2,9-.15,15,5.85,15,4.15,0,7.85-4,9-9,1.85-8,3-13,6.58-13H415.6c.93,0,2.74.6,3,1.49.79,2.65,1.64,4.75,4.56,13.51,2,6,6.15,7.5,8.37,7.5C435.32,137.5,437.17,133,435.17,126ZM377.44,98.66,391.32,27c2-7,6.47-6.9,8,0,2,9,14,65.21,15.31,71.47.28,1.3-1.31,2.53-4,2.53H378.52C377.27,101,377.3,99.91,377.44,98.66Z"/><path class="cls-1" d="M642.5,4c-24,0-41,16-41,55.23C601.5,125,625.79,139,641.2,139c31.59,0,37.2-10,35.59-51.14-.45-11.62-6.53-19.43-12-19.43-6.48,0-4.39,13.57-3.32,21.48,1.21,8.91,11.32,38.77-18,38.77-9.71,0-23.68-19.34-23.68-68.43,0-38.25,14.5-45.93,22.68-45.93,11.29,0,18.9,6.68,22.29,3.68C669.92,13.46,660.79,4,642.5,4Z"/><path class="cls-1" d="M1007,141c-27,0-37-23-37-90,0-40,0-46,9-46,12.42,0,7,38,7,44,0,16-6,77,20,77,27,0,15-78,15-91,0-21,1-28,7-28,11,0,10,11,10,25,0,11,1,22,1,55S1032,141,1007,141Z"/><path class="cls-1" d="M1094,10.73a.91.91,0,0,0-.26.64c0,40,3,103.68,3,117.64,0,5.25,5.08,8.63,8,8.63,5.94,0,8-2.26,8-6.63,0-22.39-3-75.19-3.79-89.41a.93.93,0,0,1,1.71-.54l27,42.77a.9.9,0,0,1,.14.4c.26,2.85,3,33.21,3,41.78,0,14,5.59,11,9,11,17.59,0,4-97,4-114,0-10-4.14-15.77-10-16-2.95-.12-7,0-7,15,0,13,1,29,1,29,.05,1-3.57-4.42-4-5.34-4.92-10.47-17.62-36.48-24-39.66C1102.61,2.42,1095.45,9.25,1094,10.73Z"/><path class="cls-1" d="M792.48,124c-5.49-9.88-21.61-28.4-27.78-37.18-1-1.45-1.22-3.82,1.86-5.4C770.94,79.17,789.7,66.29,789.7,44c0-15.05-10-40-44-40-16,0-19,7-19,17,0,7.17.23,30.25.78,58,.44,22.53,2,35.62,2,41,0,14,5,19,9.22,19,2.78,0,6.78-6,6.78-18l-.78-28.45a3.12,3.12,0,0,1,2.51-3.06l.54-.11a3.11,3.11,0,0,1,3.13,1.22c5.38,7.4,18,27.47,24.6,37.39,4,6,14,13,17,11C794.87,137.41,797.48,133,792.48,124ZM743.64,74.74l-.88-58.86a3.11,3.11,0,0,1,3-3.18c6.86-.28,30,8.48,30,31.3,0,22.2-14.31,34.76-28.52,34.76C745.32,78.76,743.68,76.61,743.64,74.74Z"/><path class="cls-1" d="M1239,5c-5,0-19-1-19,11V120c0,16,0,19,19,19,23,0,37-24,37-71S1253,5,1239,5Zm3,118c-9,0-8.81-2.23-8.81-14.1s-2-65.31-2-77.19c0-9.71,1.85-11.71,7.39-11.71,8,0,24.46,15.42,24.46,50.31S1255.06,123,1242,123Z"/></g></g></svg>