<svg xmlns="http://www.w3.org/2000/svg" viewBox="0 0 1715.02 205.76"><defs><style>.cls-1,.cls-2{fill:#014866;}.cls-1,.cls-2,.cls-3,.cls-4{stroke:#4b7f8e;}.cls-1{stroke-miterlimit:10;stroke-width:3px;}.cls-2,.cls-3{stroke-linejoin:round;}.cls-2{stroke-width:7px;}.cls-3{fill:#fff;}.cls-3,.cls-4{stroke-width:10px;}.cls-4{fill:none;stroke-linecap:round;}</style></defs><title>Asset 21</title><g id="Layer_2" data-name="Layer 2"><g id="Layer_3" data-name="Layer 3"><path class="cls-1" d="M12.52,164.93h41c7,0,7-3,7-7,0-6-4.92-7-11-7h-27a3.81,3.81,0,0,1-3.81-4c.47-12,1.84-47.38,1.84-68,0-31,1-43-9-43-11,0-10,14-10,43,0,14.78,0,50.35.82,70.14C2.68,157.4-.48,164.93,12.52,164.93Z"/><path class="cls-1" d="M501.12,164.93h37.51c7,0,11.49-3,11.49-7,0-5-4.92-8-11-8h-27a3.81,3.81,0,0,1-3.81-4c.47-12,.84-45.38.84-66,0-31,1.08-45-9-45-9.92,0-11,16-11,45,0,14.78,1,50.35,1.82,70.14C491.27,158.4,491.2,164.93,501.12,164.93Z"/><path class="cls-1" d="M194.66,92.93c0-46.79-12.32-62-45-62-30,0-38,34.1-38,66,0,24.46,2,72,43,72C189.66,168.93,194.66,116.33,194.66,92.93Zm-39,60c-27.89,0-24-34.67-24-57s5.35-51,20-51c29,0,25,30.25,25,52C176.66,116.18,173.66,152.93,155.66,152.93Z"/><path class="cls-1" d="M1291.51,92.87c0-46.79-14-62.94-43.16-62.94-27,0-45.71,18-45.71,60,0,38,9.89,77,46.22,77C1287.52,166.93,1291.51,125.93,1291.51,92.87Zm-43.59,61.24c-22.4,0-24.46-33.17-24.46-64,0-22.33,8.86-48.16,24.83-48.16,21.24,0,25.4,29,25.4,50.73C1273.68,122.93,1267.52,154.11,1247.92,154.11Z"/><path class="cls-1" d="M282.64,32.93c21.18,0,27.7,9,24.7,14s-16.69-2-22.7-2c-15.82,0-26.3,33-26.3,58,0,21,2.48,52,29.3,52,11.7,0,17.16-9,22.7-5,8.11,5.85-11,19-23.7,19-41.82,0-48.3-38-48.3-68C238.34,62.93,253.82,32.93,282.64,32.93Z"/><path class="cls-1" d="M438.33,153.43c-1.13-4-20.08-88.25-22-97-2.85-13-7.85-24-22.85-24-11,0-16,14-19,27-2.51,10.89-16.25,82.13-18,90-2,9,1.85,15,7.85,15,4.15,0,7.85-4,9-9,1.85-8,3-13,6.58-13h37.85c.93,0,.74.6,1,1.49.79,2.65,1.64,4.75,4.56,13.51,2,6,8.15,7.5,10.37,7.5C437.48,164.93,440.33,160.43,438.33,153.43ZM379.6,125.1l13.87-70.66c1.71-9,5.47-7.9,7-1,2,9,14,65.21,15.31,71.47.28,1.3-.31,2.53-3,2.53H380.68C379.43,127.43,379.46,126.34,379.6,125.1Z"/><path class="cls-1" d="M1001.62,31.93c-24,0-50,16-50,55.23,0,59.77,20.9,79.77,43.9,79.77,31.7,0,48.39-10,48.39-51.14,0-15.86-7.75-21-13-19.43-8.77,2.57-5.32,13.5-5.32,21.48,0,10.09,4.33,33.77-30.07,33.77-13,0-22.59-20.68-22.59-63.43,0-38.25,20.5-44.93,28.68-44.93,11.29,0,18.9,5.68,22.29,2.68C1029,41.39,1019.91,31.93,1001.62,31.93Z"/><path class="cls-1" d="M1388.67,164.93c-22.15,0-44-11-44-38,0-17-.06-35.38-.06-66,0-16,3.91-26,11.91-26,7.06,0,9.15,11,9.15,26,0,49-10,91,22.94,91,31.91,0,19.06-42,19.06-91,0-15,3.85-24,9.85-24,8,0,11.15,9,11.15,23,0,23,1.67,39.7,1,66C1429.08,149.63,1413.52,164.93,1388.67,164.93Z"/><path class="cls-1" d="M1483.77,64.3c0,23.51,2,66.67,2,80.63,0,17,6.75,20,12,20,5.94,0,9-6.63,9-19.63,0-22.39-3-68.19-3.79-82.41a.93.93,0,0,1,1.71-.54l42.83,85.59c5,9,8,16.37,15.25,16.37,4.59,0,8.2-3,8.2-16.67,0-27.33-4.2-84.77-4.2-97.33,0-10-3.45-14.2-9.31-14.43-2.95-.12-7.69,5.06-7.69,15.43,0,8.79.57,25.18.95,36.17.08,2.23,2.22,30.55.8,28.83-14.23-17.26-41-81-52.49-81C1487.29,35.3,1483.77,40.3,1483.77,64.3Z"/><path class="cls-1" d="M1157.4,148.43c-5.49-9.88-17.61-26.4-23.78-35.18-1-1.45-1.22-3.82,1.86-5.4,4.38-2.25,20.15-16.13,20.15-38.42,0-19-5.68-40-45-40-16,0-21,5-21,15,0,7.17-.23,21.25.32,49,.44,22.53.46,46.62.46,52,0,14,6,19,10.22,19,2.78,0,9.78-5,9.78-17l-.78-29.45a3.12,3.12,0,0,1,2.51-3.06h0a4,4,0,0,1,4,1.56c5.56,7.72,18.14,27,24.27,36.94,5.54,9,14,13,17,11C1159.79,162.83,1162.4,157.43,1157.4,148.43Zm-48.84-48.26-.88-58.86a3.11,3.11,0,0,1,3-3.18c6.86-.28,29,10.3,29,31.3,0,18-13.31,34.76-27.52,34.76C1110.24,104.19,1108.6,102,1108.57,100.16Z"/><path class="cls-1" d="M1658.52,33.93c-5,0-27-1-27,11v97c0,16,0,23,20,23,41,0,62-28,62-75S1679.52,33.93,1658.52,33.93Zm3,118c-12,0-9.81-3-9.81-21.1,0-11.87-1-58.31-1-70.19,0-9.71-1.15-14.71,7.39-14.71,14.46,0,37.46,13,37.46,46.31C1695.52,127.12,1674.56,151.93,1661.48,151.93Z"/><path class="cls-2" d="M796.74,67.33l.13,3.19c-1.82-1.62-4.39-2.79-6.12-2.46l-44,8.26a4.63,4.63,0,0,1-1.64,0l-54.56-9.4,0,.4L641.31,76.5a4.63,4.63,0,0,0-3.78,4.55V196.51a4.63,4.63,0,0,0,5.61,4.53l36.46-7.91a4.63,4.63,0,0,0,3.64-4.25l3.65-60.35c.35-5.71,8.72-5.84,9.24-.14L701.66,189a4.63,4.63,0,0,0,3.55,4.09L742.93,202a4.63,4.63,0,0,0,2.12,0l34.7-8.88c1.95-.46,2.38-2.12,2.55-4.11l6.24-47.24c.57-5.14,11.13-4.89,11.35.29L805,192.39l44.79,9.87V77.2Z"/><path class="cls-3" d="M809.89,71.22a66.22,66.22,0,1,0-109.8,49.87l33.28,33.28a14.57,14.57,0,0,0,20.6,0l33.28-33.28A66.06,66.06,0,0,0,809.89,71.22Z"/><line class="cls-4" x1="725.16" y1="51.45" x2="762.18" y2="51.45"/><line class="cls-4" x1="725.16" y1="91.53" x2="762.18" y2="91.53"/><line class="cls-4" x1="715.64" y1="71.49" x2="771.7" y2="71.49"/></g></g></svg>