<svg xmlns="http://www.w3.org/2000/svg" viewBox="0 0 881.93 93.67"><defs><style>.cls-1{stroke:#000;stroke-miterlimit:10;stroke-width:4px;}</style></defs><title>Asset 2</title><g id="Layer_2" data-name="Layer 2"><g id="Layer_2-2" data-name="Layer 2"><path class="cls-1" d="M748.66,88.57c-1.11-.09-3.17.86-4.23.73A4.34,4.34,0,0,1,741.52,88c-.74-.69-.17-1.72-.77-2.57,0,0,0-1,0-1.07a17.66,17.66,0,0,1-.32-4.18,10.4,10.4,0,0,0-.3-4.33c-.2-.74.19-1.62.14-2.42-.1-1.52-.45-3-.48-4.55-.07-2.87.06-5.75,0-8.63,0-1.42-.28-2.83-.36-4.24s0-2.64-.09-4c-.09-2-.24-4-.31-6.05,0-1.2.05-2.4,0-3.6-.08-2.6-.24-5.2-.3-7.8,0-1.25.17-2.5.16-3.76s-.15-2.46-.22-3.69-.13-2.71-.24-4.07-.33-2.58-.4-3.88,0-2.8,0-4.2-.19-2.8-.21-4.2a13.91,13.91,0,0,1,.07-3.17c.07-.77.88-.55,1.51-1.16A2.07,2.07,0,0,1,742.14,6c.73.41,1.86.09,2.81.12.41,0,.9.75,1.74,1.65s1.73,1.23,2.57,2.36a7.47,7.47,0,0,1,.56.91c.75,1.51.5.62,1.22,2.15.38.8.69,1.64,1,2.46s1.63,1.58,2,2.37c.19.4.41.8.57,1.22s.29,1.07.52,1.56c.48,1.06,1,2.09,1.52,3.14.63,1.31,1.27,2.62,1.89,3.94a6.82,6.82,0,0,1,.45,1.24,28,28,0,0,0,1.35,3.52,54.91,54.91,0,0,0,3.06,6.11c.22.28.16.76.34,1.09.51.93,1.06,1.84,1.62,2.75l5.72,9.26c.59.95,1.5,1.85,1.67,2.87.38,2.26,1.86,4,2.59,6.05.44,1.25,1.05,2.44,1.61,3.65.05.11,1.3,7.13,1.56,7.23.07-1.26.15-8.35.17-9.5,0-2-.88-5-.67-7.06a29.71,29.71,0,0,0-.31-5.89,30.37,30.37,0,0,1,.32-4.07l0-.25A12.67,12.67,0,0,1,778,41a21.8,21.8,0,0,0,.27-3.6c0-1-.91-2.13-.59-3.16.13-.42.5-.87-.22-1.14,0,0,0-.2,0-.3.22-1.59.46-3.18.66-4.77a1.61,1.61,0,0,0-.21-.69c0-.05.27-.75.21-.79.77-1-.89-1.38-.35-2.4,0-.05.13-.06,0,0,0-.38,0-.65,0-.91s-.08-.77-.12-1.16-.08-.65-.08-1c0-.48,0-1,0-1.43,0-.11-.06-.24,0-.33.55-1.36-.19-2.64-.2-4,0-.31.3-.61.35-.93a4.09,4.09,0,0,0,.14-1.92c-.37-.95-.49,1.59-.37.56a34.41,34.41,0,0,0-.11-3.88c0-1.07.06.84.24-.21a2.73,2.73,0,0,1,.85-1.19,4.74,4.74,0,0,1,1.06-.76c.33-.18.78-.5,1-.4.87.36,2.63.17,3.57.87,2,2,.56-3.1,2,1,.36,1-.49,2.42-.34,3.53a13.71,13.71,0,0,0,.1-1.73c-.07,2.31-.21,4.61-.2,6.92,0,1.46.23,2.92.33,4.39a4.32,4.32,0,0,1-.14,1,8.39,8.39,0,0,0-.2,1.18c0,1.78-.08,3.56,0,5.34s.25,3.53.24,5.29c0,1.33.71,2.65.62,4-.07,1.13,0,2.28-.07,3.4a53.27,53.27,0,0,0-.2,6c0,3.6-.2,7.21-.11,10.8.1,4.12.37,8.24.55,12.36,0,1,0,2.07,0,3.11.1,2,.29,4.07.37,6.1,0,.88-.24,1.78-.14,2.65.17,1.38-.73.88-.11,2.08s.32.95,0,1.83c-.61,1.67-1.76,1.81-3.61,2.1-.63.1-1.26.46-1.65-.42-.06-.13-.56,0-.79-.14,1.42.81-2-1.79-2-1.69-.2-1.8.54-1.05-.45-2.44-.25-.35,1.06,1.81.86,1.44-1-1.78-3.43-6.11-4.39-7.9a9.58,9.58,0,0,1-.64-1.41,15.09,15.09,0,0,1-.42-1.5,3.61,3.61,0,0,0-1.31-2.27c-.45-.35-1-1.21-.81-1.61.41-1.14-.68-.77-1-1.24.47-.54-.57-1-1.1-1.63s-.87-2.55-1.3-3.34-.8-1.43-1.15-2.16c-.25-.51-.42-1.07-.62-1.6-.08-.2-.09-.49-.23-.59-1.71-1.17-1.8-3.26-2.78-4.84-.62-1-1.08-2.1-1.73-3.08-.33-.5,0-.79-.34-1.27C761,50.8,760,50.3,760,49.85c-1.2-1.62-1.07-2.44-1.74-4.38-.18-.53-.72-.94-1-1.44-.81-1.38-1.62-2.77-2.36-4.19-.34-.66-.41-1.48-.8-2.1-.78-1.24-.89-2.73-1.5-4-.45-.9-2.13-1.72-2.38-2.74a4.94,4.94,0,0,1,0-1.16c-.63,0-1-.63-.57-1.41-1.66-1.08-1.59-6.23-3.07-7.65,0,.51,0,3.89,0,4.26a11.23,11.23,0,0,1,0,4.64,2,2,0,0,0,0,.45c0,1-.08,2-.12,3a12.87,12.87,0,0,1,.52,2.52c0,2.22-.09,4.44-.13,6.66,0,.28.18.57.2.85.15,2.46.25,4.93.42,7.39.09,1.23.35,2.45.42,3.68q.19,3.25.23,6.51c0,2.26-.06,4.52,0,6.78,0,1.65.13,3.3.23,4.95.15,2.61.25,5.23.52,7.83.17,1.65-.39,3.27-.09,4.9.11.6.56,1.15-.33,1.76C747.92,87.38,749,87.5,748.66,88.57Z"/><path class="cls-1" d="M515.58,81.91c-1.39-2.58-.8-2.14-2.24-4.69-.87-1.54-1.83-3-2.68-4.57-1.25-2.28-2.35-4.65-3.68-6.88-.88-1.48-2-1.8-3.11-3.16-.09-.11-.64-1-.77-.88-1.22,1.46-3,1.85-4.65,2.38-.57.18-6.09.54-6.67.83l-.32-.87c-.25,1.73-1.54.63-2.82.92.1,4.5.23,10.07.31,14.65,0,2.29,0,4.59,0,6.89,0,.62,0-1.76,0-1.15.12,1.77.19,2.7-.9,3.65-.53.46-1.69,0-2.6-.2a4.38,4.38,0,0,1-2.61-.17c-1.67-1.25-1.19,1.6-1.35-.4-.12-1.54-.37-3.07-.46-4.6a9.85,9.85,0,0,1,.3-2.07c0-.22,0,.51-.06.26-.17.26-.28-.44-.49-.13-.09-1.82-.19-3.53-.27-5.25-.06-1.33-.09-2.67-.15-4q-.19-4-.41-8-.23-4.16-.49-8.32c-.21-3.29-.48-6.57-.63-9.85-.06-1.38.13-2.77.17-4.15,0-1.06,0-2.11,0-3.17,0-5-.05-10.1-.13-15.15,0-2.44-.17-4.88-.31-7.32-.12-2.12-.3-4.23-.45-6.34A25.39,25.39,0,0,1,478,6.75,3.87,3.87,0,0,1,478.79,5a13.93,13.93,0,0,1,1.36-1.47,5.65,5.65,0,0,0,3.93-1c.63-.37,2.59,0,3.33-.3a8,8,0,0,1,4.49.11c.58.12,6.23,0,6.78.13,1.31.42,2.57,1,3.86,1.47,1.69.62,3.64.87,5,1.9C508.62,6.71,510,7,510.92,8a19.51,19.51,0,0,0,2.3,1.46,17.82,17.82,0,0,1,3.25,2.75,29.08,29.08,0,0,1,3.21,5,25,25,0,0,1,2.64,9.44,25.51,25.51,0,0,1,.38,3.48,66.14,66.14,0,0,1-.74,6.65,54.45,54.45,0,0,1-1.24,5.6,14.6,14.6,0,0,1-1.11,2.38c-.62,1.29-1.18,2.6-1.87,3.85a13.86,13.86,0,0,1-1.44,1.76,21.26,21.26,0,0,0-1.46,1.91c-.87,1.39-2.44,2.22-3,3.84-.06.17-.26.39-.21.48.52,1,1,2,1.63,3s1.33,1.92,2,2.9c.46.7.9,1.42,1.3,2.16.82,1.5,1.61,3,2.41,4.54,1,2,2.08,4,3.14,6,.36.68.78,1.32,1.16,2,.88,1.57-.21.13.59,1.73A26.73,26.73,0,0,1,525,81.91c.08.22-.06.51-.11.84,1.12,1,.67,1.14,1.15,1.83.73,1,0-.07,0,1,0,.43-1,1.37-1.09,1.74-.37,1.11-1.9.83-2.8,1.59s-2.1-.2-2.28-1.23c-.05-.31-4.44-6.75-4.84-7.1m-27.4-34.4c-.3,1.86.34,3.55.19,5.27-.13,1.54,0,2.1,0,3.65,0,2.3,7.25,1.49,7.31,1.34,3-1.94,7-3,9.87-5.13a56.16,56.16,0,0,0,4.2-3.94,11.39,11.39,0,0,0,3.41-5.59,38.82,38.82,0,0,0,1-5,59,59,0,0,0,.45-6.45,14.47,14.47,0,0,0-.52-4.08,36.59,36.59,0,0,0-2-5.06,14.46,14.46,0,0,0-4.62-5c-1.73-1.23-3.66-2.18-5.51-3.24a16,16,0,0,0-2.72-1.47c-1.57-.53-8.22-.85-10-1.3-.11.66-.2-.75-.34.11-.17-.85-.29.56-.42,0-.93.32-1.07.59-1,1.59q.13,2.6.22,5.19t.13,5.22c.1,6,.28,20.84.28,22.17.44-.1-1.28-.17-1-.23A3.62,3.62,0,0,0,487.67,46.18Z"/><path class="cls-1" d="M856.35,87c.88.2.15-.39-.38-.6-1.16.3-6.06,1.06-6.89,1.13,7.56-.66-4.15.94-4.07.74-.65,0-1.23,0-1.79,0-1.86.09-3.72-.73-5.57-.75a15.15,15.15,0,0,1-3.14-.7c-.51-.17,0,.6-.53.52-1.35-.2-3.73.81-4-.22a7.9,7.9,0,0,1-.12-3.31c.06-.62.56-1.28.41-1.94s-.17-1.32-.26-2-.16-1.1-.23-1.64c-.18-1.45-.69-2-.45-3.34.31-1.87-.32-3.62-.2-5.45a27.11,27.11,0,0,0-.6-4.51c-.11-1,0-2-.07-3.05s-.26-2-.35-2.94c0-.31.13-.64.12-1,0-1.86-.09-3.71-.12-5.57,0-.41.15-.83.14-1.24,0-1.47-.17-2.95-.2-4.42,0-1.09.07-2.18.07-3.28a8.61,8.61,0,0,0-.17-1.29,1.88,1.88,0,0,1-.1-.5c.11-.73,0-4.22-.06-5.31-.08-1.9-.31-3.79-.43-5.68,0-.6.18-1.21.14-1.81-.13-2-.36-3.92-.48-5.88-.15-2.3-.21-2.6-.35-4.91,0-.59-.27-1.16-.34-1.75a19.54,19.54,0,0,1-.12-2c0-1.2,0-2.41,0-3.6a1.66,1.66,0,0,1,.54-1c.4-.39,1,.38,1.35,0a6,6,0,0,1,4.45-2.17c1.63-.08,3.27-.09,4.9-.11.43,0,.85.1,1.28.13,1.55.11,5.1.2,6.65.34.56,0,1.11.22,1.66.31s1.12.09,1.66.23c1.06.27,6.1.6,7.15.92.26.08,3.51,1.33,3.76,1.32,2.5,1.84,1.89.37,3.94,1.74,1.33.89,2.31.34,3.28,1.65,1.27,1.72,2.34,2.58,3.55,4.34s2.75,3.68,4,5.61a35.26,35.26,0,0,1,3,5.77,30.69,30.69,0,0,1,1.24,5.43c.48,2.53,1,5.07,1.29,7.62a28.91,28.91,0,0,1-.06,3.56c0,1.35.14,2.7.11,4.05,0,1.92.22,4-.41,5.71-.75,2.08-.62,4.36-1.86,6.33-.58.92-.59,2.16-1,3.23a24.12,24.12,0,0,1-1.18,2.71,11.65,11.65,0,0,0-.91,1.5,19.13,19.13,0,0,1-2.88,5.41,65.27,65.27,0,0,0-4.84,6c-.44.63-1.14.81-1.53,1.45a7.09,7.09,0,0,1-1.69,1.52c-.76.62-1.52.25-2.35.79-1.21.78-2.48.48-3.73,1.21C857.27,86.59,856.94,86.74,856.35,87ZM834.07,14.58c.1.57.72,0,.72.49,0,1.73-.12,2.46-.14,4.19,0,.48.21-1,.25-.55.16,1.63.26,3.27.44,4.91q.23,2.13.59,4.24a20.66,20.66,0,0,1,.55,2.17c.1,1.87.06,3.74.11,5.61,0,1.6.18,3.19.17,4.78,0,.63-.43,1.25-.43,1.88a36.71,36.71,0,0,0,.29,4.12c.06.48.53.92.55,1.39.09,1.75.07,3.5.09,5.26,0,2.51,0,5,.11,7.52.08,1.68.41,3.34.54,5,.15,2,.17,3.92.3,5.87.18,2.69.51,4.37.55,7.06,0,1.28,0,.46.73,1.57.4.59.75,1.75,1.52,1.51,1.55-.48,6.17.25,7.76-.12.26-.06,4.08-.77,4.31-.91,1.33-.81,2.12-1,3.42-1.88A20.55,20.55,0,0,0,859,76.84c.54-.48.85-.19,1.39-.68A8.24,8.24,0,0,1,862.16,75c.65-.33.31-1.18,1.12-1.55.58-.27.76-1.31,1.14-2,.1-.18.33-.47.41-.45.68.24.52-.37.65-.61a1,1,0,0,0,.11-.75c-.34-.94,1.36-.92.94-2.1-.21-.61.45-1.74,1.05-2.32,1.05-1,1.1-2.38,1.74-3.52a6.85,6.85,0,0,0,.45-1.28,5.55,5.55,0,0,0,.2-.74c.16-.92.31-1.83.47-2.81l.44-.14c0-1.15,0-2.15,0-3.14,0-.84.19-1.66.26-2.5.09-1.1.13-2.21.2-3.31s.18-2.37.27-3.55c0-.06,0-.18,0-.19-1.2-.44-.38-1.46-.58-2.17-.27-.93.42-2-.1-3s-.9-2.08-1.32-3.13c0-.08,0-.2,0-.29a20.48,20.48,0,0,0-.63-2.87,19.08,19.08,0,0,0-1.47-3c-.79-1.36-1.62-2.71-2.53-4-.64-.91-1.44-1.71-2.13-2.58s-.46-1.89-1.53-2.34c-.09,0-.11-.23-.16-.35-.49-1.31-1.07-.54-2.35-1.36-.26-.17-.38.46-.65.07-.77.11-1.12-.39-2.16-1.13-.91.09-10-2-11-2.25-2.74-.83-3.4-.28-6.28-.64C837.43,14.77,835.67,15.11,834.07,14.58Z"/><path class="cls-1" d="M620.69,29.89l-1.22.33-.11.41a1.32,1.32,0,0,0,.43.16c1.09,0,1.11.68,1.1,1.5a11.77,11.77,0,0,0,.26,1.93c.37,2.34.38,4.7.51,7.06a54.57,54.57,0,0,1-.25,10.3,79.93,79.93,0,0,1-1.54,8.81c-.34,1.2,0,2.3-.51,3.47s0,3.65-.54,5a49.66,49.66,0,0,1-5.93,10.27c-1.55,2.12-3.64,3.6-5.42,5.4-1.46,1.47-3,1.52-4.68,2.57a18.92,18.92,0,0,1-4.67,1.78c-2.22.53-5.47,0-7.32.42-2.1.47-4.15-.21-6.25-.31a30.17,30.17,0,0,1-4.77-.81,15.51,15.51,0,0,1-3.79-1,41.37,41.37,0,0,1-5.38-3.33,24.32,24.32,0,0,1-3.45-3.1c-1.62-1.72-3.23-3.46-3.88-5.87-.23-.87-.9-1.61-1.2-2.47-.48-1.35-.77-2.76-1.24-4.11-.31-.89-.87-1.68-1.21-2.56-.54-1.44-1-2.91-1.46-4.39-.23-.81-.23-1.68-.43-2.5-.52-2.13-1.22-4.22-1.6-6.38s-.53-4.48-.73-6.73-.39-4.21-.43-6.32c0-1.34.24-2.68.33-4,.07-1.06,0-2.14.15-3.19s.61-2.06.73-3.11c.28-2.3,1.62-4.15,2.48-6.21a26.19,26.19,0,0,1,1.64-3.65c1.29-2.12,2.27-4.45,4.1-6.21,1.53-1.47,3-3,4.58-4.43a4.59,4.59,0,0,1,1-.55c.13-.07.32-.13.36-.24.7-2,2.71-1.82,4.19-2.52.66-.31-2.12.81-1.51.41,1.1-.72,5-3,7-3a31.89,31.89,0,0,1,3.84.2c2-.12,4-.19,6-.29a9.94,9.94,0,0,1,2.44-.14c2.38.51,4.74,1.16,7.09,1.78.23.06.42.29.65.38,1,.42,2,.75,3,1.23a32.25,32.25,0,0,1,3.43,2,13.75,13.75,0,0,1,2.77,3,26.2,26.2,0,0,0,2.9,2.48A20.61,20.61,0,0,1,615,16,27.37,27.37,0,0,1,618.33,22c.2.49-.07,1,.31,1.66a17.34,17.34,0,0,1,1.33,3.8C620.25,28.32,620.49,29.19,620.69,29.89Zm-56,19.31a2.19,2.19,0,0,0,0,.47c1,3.44,1,6.88,2.07,10.32.32,1.06.71,2.11,1,3.18.36,1.5,1.58,3,1.94,4.53.14.57.62,1.07.71,1.64.28,1.78,1.43,3.07,2.43,4.41s2.35,2.39,3.25,3.76c.62.95,1.16,1.5,2.29,1.34a.7.7,0,0,1,.49.21,3.9,3.9,0,0,0,2.77.91,7.88,7.88,0,0,1,2,.37,8.36,8.36,0,0,0,4.62.43c2-.49,3.91.7,5.86.07,2.51-.82,7.49-1.49,9.36-3.21a28.15,28.15,0,0,0,3.82-4.49c.92-1.29,1.49-2.83,2.3-4.2.42-.71,0-1.92,1.27-2.15.11,0,.18-.3.25-.47.36-.9-.3-2.81.09-3.7.67-1.56,1.52-5.06,2-6.67.57-1.89-.16-7.87.23-9.82.12-.57-.73,2.85-.68,2.27.17-2,.3-4,.45-6,.08-1.07.26-2.15.25-3.22a36.24,36.24,0,0,0-.32-4.83,22.37,22.37,0,0,0-1.14-4.46,4.67,4.67,0,0,1-.19-1.41c-.06-.71-.07-1.83-.47-2-.94-.46-.9-.82-.51-1.41a7.64,7.64,0,0,1-.85-1.7c-.08-.21,0-.5-.15-.66a16.54,16.54,0,0,1-2.36-3c-.62-1.35-1.91-1.89-2.79-2.9a11.06,11.06,0,0,0-4.38-3.47c-1.1-.4-2.09-1.15-3.2-1.5a40.64,40.64,0,0,0-5.21-1.29c-2.33-.42-4.68-.72-7-1a26.22,26.22,0,0,0-3.51,0c-1,0-.21,0-2.68,1.17,0,.09-.24.12-.37.18a4.52,4.52,0,0,0-1.12.5c-1.25,1-2.2,2.43-3.7,3.19-.3.15-.5.53-.73.81-.67.85-1.37,1.68-2,2.57-1.09,1.58-2.47,3.08-3.11,4.84-.71,2-2.06,3.69-2.17,5.94-.09,1.82-1.55,3.39-1.28,5.35a.26.26,0,0,1,0,.11c-.45,1.33-.87,2.63,0,4,.18.28-.06.84-.13,1.26a13.94,13.94,0,0,0-.4,2.48,20.54,20.54,0,0,0,.43,3.89c.25,1.15-1.7,1.24.08,1.77C565.07,50.58,565,49.15,564.65,49.2Z"/><path class="cls-1" d="M64.43,61.31l1.24-.26.14-.4a1.32,1.32,0,0,0-.42-.18c-1.09,0-1.07-.74-1-1.56A11.77,11.77,0,0,0,64.21,57c-.24-2.36-.13-4.71-.14-7.07a54,54,0,0,1,.8-10.22A63.15,63.15,0,0,1,66.77,32a32.17,32.17,0,0,1,1.69-3.38c.61-1.28,1.14-2.59,1.75-3.86a49.66,49.66,0,0,1,6.46-9.94c1.66-2,3.82-3.4,5.7-5.1,1.53-1.39,4.11-1.36,5.87-2.32A12.64,12.64,0,0,1,92,5.77c1.8-.33,3.57-.83,5.38-1.13a23.46,23.46,0,0,1,6.28-.36,30.17,30.17,0,0,1,4.72,1.06,15.51,15.51,0,0,1,3.73,1.24,41.37,41.37,0,0,1,5.2,3.61,24.32,24.32,0,0,1,3.28,3.28c1.53,1.8,4,3.63,4.56,6.07.19.88.81,1.66,1.07,2.53.41,1.37.62,2.8,1,4.17.26.9.78,1.73,1.07,2.62.47,1.47.88,3,1.23,4.46.19.82.14,1.69.29,2.52.4,2.15,1,4.28,1.26,6.45s.29,4.5.37,6.76-.84,4.22-.9,6.33c0,1.34-.38,2.67-.54,4-.13,1.06-.12,2.13-.32,3.17s-.71,2-.9,3.07c-.4,2.29-1.84,4.06-2.8,6.07a26.19,26.19,0,0,1-1.83,3.56c-1.4,2-2.5,4.32-4.43,6-1.61,1.39-3.19,2.81-4.81,4.18a4.59,4.59,0,0,1-1.07.49c-.13.06-.33.12-.37.22-.8,2-2.8,1.67-4.31,2.29a15.76,15.76,0,0,0-1.95,1,3.29,3.29,0,0,1-3.41.07,2.56,2.56,0,0,0-2.92.54,1.84,1.84,0,0,1-1.16.26c-2,0-4,0-6,0a9.94,9.94,0,0,1-2.44,0c-2.35-.63-4.67-1.41-7-2.15-.23-.07-.41-.31-.63-.42-1-.47-2-.86-2.9-1.39a32.25,32.25,0,0,1-3.32-2.14,13.75,13.75,0,0,1-2.61-3.1,26.2,26.2,0,0,0-2.76-2.63,20.61,20.61,0,0,1-2.68-2.94,27.37,27.37,0,0,1-3-6.23c-.18-.5.13-1-.22-1.67A17.34,17.34,0,0,1,65,63.77C64.79,62.9,64.6,62,64.43,61.31Zm58-16.31a2.19,2.19,0,0,0,0-.47q-1.25-5.24-2.52-10.47c-.26-1.08-.6-2.14-.8-3.23-.28-1.51-.42-3.05-.7-4.57-.11-.58-.56-1.1-.62-1.68-.19-1.79-1.27-3.14-2.19-4.53s-3.22-2.51-4-3.93c-.57-1-1.08-1.55-2.22-1.46a.7.7,0,0,1-.48-.24,3.9,3.9,0,0,0-2.72-1.05,7.88,7.88,0,0,1-2-.47,8.36,8.36,0,0,0-4.59-.67c-2,.38-4,1.09-6,1.62-2.55.68-5.61,1.24-7.58,2.87A28.15,28.15,0,0,0,82,21c-1,1.24-1.64,2.74-2.52,4.07-.46.69-1.58,2.36-1.66,2.53-.41.88-.8,1.77-1.23,2.64a45.67,45.67,0,0,0-2.26,4.56c-.67,1.86-1,4.82-1.54,6.75a15.25,15.25,0,0,0-.41,1.71c-.28,2-.51,4-.77,6-.14,1.07.62,2.13.58,3.2a36.24,36.24,0,0,0,.07,4.84,22.37,22.37,0,0,0,.9,4.52,4.67,4.67,0,0,1,.12,1.41c0,.71,0,1.83.36,2.05.91.51.85.87.43,1.43a7.64,7.64,0,0,1,.76,1.75c.07.21,0,.5.12.66a16.54,16.54,0,0,1,2.19,3.09c.55,1.38,1.8,2,2.63,3A11.06,11.06,0,0,0,84,79c1.08.46,2,1.25,3.12,1.67a40.64,40.64,0,0,0,5.14,1.56c2.3.54,4.64,0,7,.35a26.22,26.22,0,0,0,3.51.2,24.51,24.51,0,0,0,3.12-.18,4.52,4.52,0,0,0,1.14-.44c1.3-1,2.32-2.31,3.87-3,.31-.14.53-.5.77-.77.71-.81,1.45-1.6,2.12-2.46,1.18-1.52,2.63-2.94,3.36-4.66.82-1.93,2.25-3.58,2.48-5.82.18-1.81,1.73-3.31,1.56-5.28a.26.26,0,0,1,0-.11c.52-1.3,2-2.58,1.23-4-.16-.29.11-.83.2-1.26a13.94,13.94,0,0,0,.53-2.46,20.54,20.54,0,0,0-.23-3.9C122.7,47.26,122.09,45,122.42,45Z"/><path class="cls-1" d="M271.28,52.16c-.16.31-.45.61-.39.81.38,1.44.86,2.86,1.24,4.31.07.27-.25.63-.23.93.18,1.9.36,3.81.64,5.7a15.59,15.59,0,0,0,.72,2.61,13.22,13.22,0,0,1,.18,2.34,6.26,6.26,0,0,0,.26,1.62c.16.63.39,1.24.55,1.88s.33,1.48.48,2.23.41,1.7.06,2.15c.14,1,.3,1.71.32,2.45.05,1.46,0,2.92,0,4.39,0,.23,0,.45,0,.68-.24,3-.17-1.91,0-1.52a3.21,3.21,0,0,1-.61,2.84c-.34.25-.41.95-.52,1.46-.29,1.34-2.72,2.4-3.84,1.83-1.47-.75-2.3-2.85-2.44-4.56-.26-3.22-.61-2.42-.8-5.64a1.19,1.19,0,0,0-1.37-1.27c-2.65,0-5.29-.65-8-.1a12,12,0,0,1-2.83-.14c-.72,0-1.44,0-2.16,0-1.83-.07-3.65-.17-5.47-.23-2.15-.08-4.29-.15-6.44-.2-1.62,0-3.24-.09-4.86,0a11,11,0,0,0-2.26.54c-.13,0-.28.27-.36.24-1.81-.66-1.92,1.18-2.71,2,0,0-.06.07-.05.1.21,2-.79,2-.18,4a4.76,4.76,0,0,1,.27,2.26c-.13.58-.9,1-1.21,1.54a2.76,2.76,0,0,1-3.14,1.41c-1.51-.24-2.61-.69-2.8-2.69a14.27,14.27,0,0,1-.09-4.45c.36-2.92.32-5.9.59-8.83.26-2.74.71-5.46,1.06-8.19.19-1.49.28-3,.51-4.47.46-2.95,1.06-5.88,1.46-8.83.11-.77.07-2.47.54-2.47.53-2.64,1-5.27,1.61-7.86.51-2.17,1.21-4.29,1.78-6.45a26.54,26.54,0,0,0,1.35-7.3c0-.2-.05-.49,0-.57,2-1.76,1.9-4.6,3.1-6.77,1.28-2.34,2.15-4.93,4-6.92.3-.33.6-.67.92-1,1.37-1.31,2.73-2.64,4.14-3.91a7.39,7.39,0,0,1,4.56-2.31,44,44,0,0,1,5.32.5A5.92,5.92,0,0,1,257.71,8a28.67,28.67,0,0,1,2.65,3.36,6.93,6.93,0,0,1,.74,1.07c.56,1.12,1.1,2.25,1.6,3.4s1,2.44,1.47,3.66a.7.7,0,0,1-.07.46c-.43,1,.12,1.58.5,2.4a17,17,0,0,1,1.26,4.38,28.18,28.18,0,0,0,1.23,4.51,27.26,27.26,0,0,1,.59,3.69c.31,1.62.69,3.22,1,4.83a46.2,46.2,0,0,1,1.2,5.78c.07.82.52,1.69.38,2.27-.32,1.31.43,2.26.59,3.37A3.84,3.84,0,0,0,271.28,52.16Zm-8.64-4c-.69-3.58-1.38-7.16-2.18-10.71-.61-2.74-1.32-5.45-2.05-8.16q-.89-3.28-1.95-6.52A23.61,23.61,0,0,0,253,15.52c-.66-.87-1.24-1.67-2.22-1.75a4.45,4.45,0,0,0-2.72.51,25.85,25.85,0,0,0-3.14,3c-.27.27-.58.49-.88.74a9.35,9.35,0,0,0-.51,1.65c-.35,1-.79,2-1.21,2.92-.34.8-.74,1.57-1.05,2.38-.39,1-.67,2.07-1.11,3-.34.76.11,1.95-1,2.25A13.74,13.74,0,0,1,239,32c-.53,2-1.17,4.07-1.64,6.13-.71,3.08-1.29,6.19-2,9.28A48,48,0,0,0,234,52.93c-.2,2-.86,3.95-1,6-.11,1.85-.16,3.71-.32,5.56a6.87,6.87,0,0,1-.55,1.68,1.7,1.7,0,0,0,1.7,2.34,31.19,31.19,0,0,1,3.89-.33c4,0,8,.13,12,.22q5.3.11,10.59.24a5.25,5.25,0,0,1,.82.2c1.54.3,3.09-.45,4.61-.84-1-6.67-2-12.19-3-18.75C262.59,49.16,262.68,48.34,262.64,48.12Z"/><path class="cls-1" d="M700.57,66.29c.14.58.43,1.06.29,1.34-.54,1.11-.11,2.6-1.33,3.43.35,1.47-.56,2.57-1.24,3.65a60,60,0,0,1-3.61,4.92,21.06,21.06,0,0,1-2.55,2.75A35.05,35.05,0,0,1,688.62,85a12.9,12.9,0,0,1-4.18,1.77,21.71,21.71,0,0,1-2.14.89c-1.95.34-3.79,1.24-5.84,1-2.86-.31-5.73-.51-8.57-1a20.56,20.56,0,0,1-4.54-1.37,5.19,5.19,0,0,1-1.91-1.58,35.14,35.14,0,0,1-2-3l-.1.48c-1.26-2.07-2.53-4-3.58-6a18.4,18.4,0,0,1-1.34-3.36,22.48,22.48,0,0,0-1.12-2.63c-.43-.95-.31-2.14-.73-3.1-.88-2-.6-4.22-1.26-6.28-.4-1.23-.15-2.67-.25-4-.17-2.19-.39-4.37-.59-6.56,0-.07,0-.16,0-.19.64-.64.15-1.14-.05-1.8a11.88,11.88,0,0,1-.15-2.88c-.09-2.22-.2-4.44-.27-6.65,0-.55.14-1.1.11-1.64-.1-1.77-.31-3.53-.37-5.3,0-1.25.19-2.51.15-3.76-.05-1.53-.28-3-.4-4.57a5.58,5.58,0,0,1,.18-1.09l.55,1a3.47,3.47,0,0,1-.08-.47c.08-1.46-.54-2.88.1-4.42.36-.85-.16-2.05-.2-3.1a45.07,45.07,0,0,1,0-5.82c.19-1.67.54-1.51,1.92-2.56.74-.57,2.08-.45,3.15-.48a7.79,7.79,0,0,1,1.91.42,11.84,11.84,0,0,1,1,2c.15.48,0-.93-.06-.39,0,.17-.13.36-.09.5.68,2,.07,4.77,0,6.8s0,3.87,0,5.8.1,4,.17,6.07c.06,1.61.16,3.22.2,4.84,0,.7-.15,1.4-.11,2.09.06,1.05.26,2.1.33,3.15s.07,2.37.11,3.56c0,.83.1,1.66.12,2.5a1.89,1.89,0,0,1-.19.72c-.05.13-.24.2-.28.33a4.8,4.8,0,0,0,.64,2.33,2.48,2.48,0,0,1,.18,2,2.07,2.07,0,0,0,0,1.24,13.41,13.41,0,0,1,0,2.67c.05,1.76.16,3.52.19,5.28,0,.41-.37.86-.29,1.23a11.74,11.74,0,0,0,.79,1.65,8.49,8.49,0,0,1,.27,1.11c.25.93.51,1.87.77,2.8,0,.07.1.14.09.2-.45,1.72.73,3,1.45,4.23,1.28,2.26,2.12,4.82,4.16,6.62a3.06,3.06,0,0,1,.84,1.39c.48,1.51,1.86,1.86,3,2.14a56.58,56.58,0,0,0,5.93.75,8.91,8.91,0,0,0,4.49-1,35.25,35.25,0,0,0,4-1.55,11.54,11.54,0,0,0,2.32-2.2c1.06-1.09,2.11-2.2,3.15-3.31.1-.1.07-.32.16-.44s.44-.48.66-.73.37-.34.42-.55c.55-2.41,1.09-4.82,1.58-7.24a30,30,0,0,0,.83-4.95c0-1.14.13-2.25.24-3.38a26.61,26.61,0,0,0,.21-5.62c-.23-2,.48-3.9.53-5.87,0-1.69.55-3.51.08-5-.41-1.31.16-2.35,0-3.54a62.91,62.91,0,0,1-.12-6.68c0-1.8,0-3.61.09-5.41,0-1.1.2-2.2.3-3.28-.11,0-.4-.07-.41-.11a4.93,4.93,0,0,1,0-1.53c.35-1.22-.55-2.2-.5-3.37.07-1.55-.14-4.84.1-6.36.12-.76.93.54,1.52-.1a2.58,2.58,0,0,1,3.26-.63.6.6,0,0,0,.22,0c.58,0,1.57-.13,1.67.11.46,1,1.56-.34,1.61,1,.13,3.22.47,8.13.6,11.34.08,2-.13,4-.16,6.05,0,2.8,0,5.61,0,8.41,0,.7.27,1.7-.85,2a.6.6,0,0,0,0,.4c1.41.62.56,1.81.7,2.74a6.49,6.49,0,0,1,.17,1.64c-.2,1.82-.53,3.62-.71,5.44-.13,1.34,0,2.7-.11,4s-.24,2.57-.32,3.86c-.09,1.51-.07,3-.19,4.53s-.34,2.82-.52,4.23a1.44,1.44,0,0,0,0,.61A1.67,1.67,0,0,1,700.57,66.29Z"/><path class="cls-1" d="M435,54.7l1.12-2.33-1.25-.13c0-.11,0-.23,0-.25,1.46-.93,1.41-2.43,1.5-3.88,0-.39.15-.77.17-1.16.05-.77.21-1.26,1.07-.59.14.11.43,0,.57,0a3.35,3.35,0,0,1,.22-1.18c.66-1,3.08-.81,3.71.21.37.59.95,1.06,1.34,1.64a2.11,2.11,0,0,1,.3,1.14c0,1.24-.1,2.48-.16,3.78l.72-.11c-.19,1.12-.4,2.16-.54,3.21-.18,1.35-.3,2.71-.44,4.07a29.75,29.75,0,0,0-.4,4.64c.09,1.58-.46,3-.55,4.52A26,26,0,0,1,441,73.77c-.8,2.84-1.7,5.71-4,7.87-.78.74-1.35,1.69-2.09,2.48a32.4,32.4,0,0,1-4.14,4.06,17.39,17.39,0,0,1-4.43,2,25.47,25.47,0,0,1-9.28,1.48,27.44,27.44,0,0,1-7-1c-1.37-.4-2.8-.6-4.15-1a24.35,24.35,0,0,1-2.9-1.35,22,22,0,0,1-6.67-5.61c-.68-.76-1.37-1.53-2.12-2.22-.19-.18-.63-.1-.8-.12-.79-1.45-1.58-2.87-2.33-4.31a9.23,9.23,0,0,1-.66-1.6c-.64-2.1-1.93-3.93-2.11-6.24-.15-1.9-.85-3.76-1.11-5.66s-.3-4-.47-6c-.09-1.08-.32-2.16-.36-3.24-.06-1.66,0-3.32,0-5a9.93,9.93,0,0,0-.48-1.56c-.06-.27,0-.78.12-.83.59-.25.55-.71.59-1.2.21-2.45.39-4.91.68-7.36.24-2,.63-4,1-6a6.83,6.83,0,0,1,.39-.87c.69-2.06,1.34-4.13,2.07-6.18.39-1.09,1-2.11,1.39-3.19a22.82,22.82,0,0,1,.67-2.31c.34-.66,1.14-.88,1.65-1.58,1.72-2.37,3.24-4.94,5.58-6.84a17.12,17.12,0,0,1,4.11-3c1.21-.5,2.26-1.39,3.47-1.86a23.18,23.18,0,0,1,6.94-1.87c1.62-.09,3.23-.63,4.83-.56a12.79,12.79,0,0,1,4.23,1.14c.44.18.92,1.48.73,1.7-.58.66-.43,3-1.71,3a.55.55,0,0,0-.32.06c-2.08,1.8-4.66,1.4-7.1,1.64a2.87,2.87,0,0,0-1,.32c-1.88,1-3.7,2-5.63,2.85s-2.61,1.76-4.35,2.59c-.65,2.11-2.76,3.33-3.3,5.56a18.71,18.71,0,0,1-1.51,3.16c-.19.42-.22.91-.38,1.34-.34.95-.79,1.86-1.07,2.82-.89,3-2.56,5.8-2.19,9.13.07.63-.53,1.34-.81,2a1.88,1.88,0,0,0-.23.71c0,1.24.19,2.49.17,3.73,0,2.82-.23,5.64-.22,8.46a40,40,0,0,0,.48,4.71c.1.8.31,1.58.42,2.37a31.41,31.41,0,0,0,.73,5,68.1,68.1,0,0,0,2.83,7c.84,1.9,2.46,3.16,4,4.5.87.78,1.52,1.82,2.44,2.53,1.76,1.35,3.37,2.93,5.86,3.11a57.3,57.3,0,0,1,5.91,1.23,10,10,0,0,0,4.79-.48,14.58,14.58,0,0,0,3.25-1.3,26.27,26.27,0,0,0,3.73-2.8,14.71,14.71,0,0,0,3.49-5,24.9,24.9,0,0,0,1-3.87,31.31,31.31,0,0,0,1.42-9.9,15.57,15.57,0,0,1,.59-2.89,7.64,7.64,0,0,0,0-2.05C435.6,55.17,435.22,54.95,435,54.7Z"/><path class="cls-1" d="M305.07,7.58a11.58,11.58,0,0,1,3.09.21,5.46,5.46,0,0,1,2.12,1.75c.47.5.21,1.18.19,1.83,0,1.61.26,3.22.35,4.84.06,1.06.24.36.16-.17a5,5,0,0,1,.08,1.54c.19,1.13.05.78.19,1.92a25,25,0,0,1,.3,3.93,86.37,86.37,0,0,0,.57,9.52c.08,1.22-.24,2.53.12,3.65s-.39,2.14,0,3.3l.31-.65c0,.13.1.23.08.32a19.15,19.15,0,0,0-.42,2.4c0,.67.34,1.37.24,2a8.6,8.6,0,0,0,.36,3.57c0,.1.1.26.05.31-1,1.29-.15,2.64-.15,4,0,2.19-.13,4.39-.21,6.58,0,.6-.1,1.2-.11,1.8a8.16,8.16,0,0,0,.12,1.09l.25-.44a21.53,21.53,0,0,0,.56,2.39,6.17,6.17,0,0,1,.11,3.47,3,3,0,0,0,.32,2.84.49.49,0,0,1,.05.42c-.55,1.35.2,2.61.26,3.92.08,1.62.1,3.24.19,4.86a5.16,5.16,0,0,0,.28,1.82c.18.4.7-.15,1.12-.1,2.13.28,4.28.44,6.42.64a4.13,4.13,0,0,0,1,0,41.18,41.18,0,0,1,7.75-.07c1.27,0,2.54.23,3.82.26,3.17.07,6.34,0,9.51.13a7.25,7.25,0,0,1,2.59.46,5.68,5.68,0,0,1,1.9,1.5,1.17,1.17,0,0,1-.25,1.86c-.22.17-.32.09-.34.32-.13,1.25.12,2.37-1.13,2.69s-3.19-.28-4.31,0a25.33,25.33,0,0,1-8.52.18c-2.86-.26-5.76-.12-8.63-.21-3.27-.1-6.55.77-9.81.58-1.36-.08-2.71-.33-4.07-.49a1.94,1.94,0,0,0-.75,0c-.82.24-2.25-.1-2.54-.84-.13-.33-1.38.39-1.59.1s.21-.77.09-1.22c-.46-1.79,0-3.6-.17-5.43-.36-4-.49-8.09-.74-12.13-.11-1.76-.33-3.52-.43-5.28-.18-3.13-.34-6.26-.45-9.4-.06-1.85,0-3.71,0-5.56a5.58,5.58,0,0,0-.56-1.52c-.07-.19-.2-.46-.13-.6,1-1.83.14-3.73.22-5.59.09-2.2-.11-4.42-.23-6.63-.16-2.85-.37-5.71-.54-8.56-.12-1.92-.22-3.83-.33-5.75-.22-4-.48-5.08-.62-9.13,0-1-1-1.89.27-2.21a6.2,6.2,0,0,0,1-1Z"/><path class="cls-1" d="M42.35,85.86c-2,.46-4,1-6,1.32a38.56,38.56,0,0,1-4.72.07c-1.26,0-2.51.11-3.77.1-2.41,0-4.83-.09-7.24-.11s-4.87,0-7.3,0c-1.61,0-5.51.11-7.07-.26a7.35,7.35,0,0,1-2.15-1.43C2.44,84.38,2.65,82.66,2.65,81c0-3.35-.09-6.7-.13-10,0-3.51-.1-7-.12-10.52,0-4.36,0-8.73,0-13.09,0-2.2-.05-4.39-.1-6.59-.09-3.78-.25-1.55-.28-5.33,0-2.86.15-5.72.15-8.58,0-2.48-.15-5-.15-7.45,0-1.83.16-3.66.18-5.49,0-1-.17-2.1-.19-3.15A3.48,3.48,0,0,1,5,6.9c.28-.05.55-.3.8-.28A5.26,5.26,0,0,1,7.29,7c.28.11.45.58.71.62,1.42.21,1.4,1.2,1.43,2.29.06,2.58.22,5.16.32,7.74,0,1,0,2,0,3,.13,2.86.34,5.71.42,8.57,0,1.61-.15,3.23-.2,4.85,0,.85,0,1.7.07,2.55.14,2,.27-2,0,0a29.14,29.14,0,0,0,.14,4.76c0,1.48,0,3,0,4.45.06,2.71.22,5.42.21,8.12,0,2.09-.3,4.19-.28,6.28,0,3.08.24,6.16.37,9.24,0,0,0,.07,0,.11,0,2.59.09,5.18,0,7.77,0,2.23,2.74,2.65,5,2.26a33.07,33.07,0,0,1,4.86-.41c1.24,0,2.49.24,3.72.19,1.87-.06,3.73-.38,5.6-.41,2.74-.05,5.49,0,8.24.09,1.19,0,2.39.12,3.58.17a2.66,2.66,0,0,1,2.28,2c.15,1.53.16,3.08-1.2,4.21C42.39,85.5,42.38,85.79,42.35,85.86Z"/><path class="cls-1" d="M193.32,9.28c.37,0,0,5.23-3.25,4.3-1.16.2-5,0-8,0-.68,0-5.09.58-5.65,1-.39.3-.64.81-1,1.08-.87.6-1.85,1-2.69,1.67a6.58,6.58,0,0,0-1.14,1.46,19.67,19.67,0,0,0-3.12,5.31c-.84,2.55-1.93,5-2.51,7.63s-1.72,5.22-1.79,8c0,1.48-.68,2.94-.8,4.43-.17,2.06-.17,4.14-.13,6.21,0,2.44.21,4.87.3,7.3a21.25,21.25,0,0,0,.94,4.78,15.6,15.6,0,0,1,1,3.32,9.5,9.5,0,0,0,1.36,4.06A26.05,26.05,0,0,0,170,74c1.09,1.21,2.31,2.3,3.49,3.44a23.76,23.76,0,0,0,2.22,2.08,12,12,0,0,0,2,.92,26.67,26.67,0,0,0,2.43,1.23,15.26,15.26,0,0,0,3.54,1c1.74.19,3.53-.06,5.26.19,1.21.17,4.15.1,5.2.76s1,2,1,3.14a1.75,1.75,0,0,1,.1,1.31,2.88,2.88,0,0,1-3,2.36c-1.11,0-2.22-.2-3.33-.19-1.35,0-2.7.19-4.05.21a31.75,31.75,0,0,1-3.54-.15,21.24,21.24,0,0,1-8.71-3,26.26,26.26,0,0,1-6.23-4.79c-1.52-1.65-3.24-3.13-4.64-4.87a14.44,14.44,0,0,1-2.17-4,87.76,87.76,0,0,1-3.18-9.51,53.66,53.66,0,0,1-1.19-13.76c0-2.3-.05-4.61.11-6.9.12-1.7.57-3.37.84-5.06.32-2,.55-4,.92-5.95a20.92,20.92,0,0,1,.86-2.62c.53-1.61.94-3.26,1.6-4.81a71.88,71.88,0,0,1,3.17-6.62,25.62,25.62,0,0,1,7.07-7.62c.85-.66,1.81-1.17,2.63-1.86.35-.3,2-.49,1.72-1.34,0,0,.75,0,1,0l6-1a40.38,40.38,0,0,1,8.87.65c1.45.33,2.66.4,3.54,1.59C193.53,8.89,193.38,9.11,193.32,9.28Z"/></g></g></svg>