<?xml version="1.0" encoding="UTF-8"?>
<svg width="437px" height="155px" viewBox="0 0 437 155" version="1.1" xmlns="http://www.w3.org/2000/svg" xmlns:xlink="http://www.w3.org/1999/xlink">
    <!-- Generator: Sketch 50.2 (55047) - http://www.bohemiancoding.com/sketch -->
    <title>map-pins</title>
    <desc>Created with Sketch.</desc>
    <defs></defs>
    <g id="map-pins" stroke="none" stroke-width="1" fill="none" fill-rule="evenodd">
        <g id="pin" transform="translate(42.000000, 54.000000)">
            <path d="M20.5501191,48.2824398 C20.0487008,48.9197015 19.2774205,49.3278689 18.4123862,49.3278689 C17.5656162,49.3278689 16.8086831,48.9367558 16.3067735,48.3224974 C16.2486829,48.2847174 16.1940035,48.23229 16.1427355,48.1652152 C9.94705153,40.0593049 4.95545637,32.2361023 2.85020489,27.0676839 C1.55536458,24.5762563 0.822222222,21.7363801 0.822222222,18.7223865 C0.822222222,8.8440442 8.69760687,0.836065574 18.4123862,0.836065574 C28.1271654,0.836065574 36.0025501,8.8440442 36.0025501,18.7223865 C36.0025501,21.9454858 35.1641505,24.9694696 33.6970123,27.581147 C31.3718154,32.9750354 27.0292276,40.4303543 20.6701769,48.1652152 C20.6324105,48.2111525 20.5923912,48.2502274 20.5501191,48.2824398 Z" id="Combined-Shape" fill="#82C989"></path>
            <ellipse id="Oval-2" fill="#220660" opacity="0.161551339" cx="18.5" cy="18.8114754" rx="9.45555556" ry="9.6147541"></ellipse>
        </g>
        <g id="pin" transform="translate(156.000000, 3.000000)">
            <path d="M20.5501191,48.2824398 C20.0487008,48.9197015 19.2774205,49.3278689 18.4123862,49.3278689 C17.5656162,49.3278689 16.8086831,48.9367558 16.3067735,48.3224974 C16.2486829,48.2847174 16.1940035,48.23229 16.1427355,48.1652152 C9.94705153,40.0593049 4.95545637,32.2361023 2.85020489,27.0676839 C1.55536458,24.5762563 0.822222222,21.7363801 0.822222222,18.7223865 C0.822222222,8.8440442 8.69760687,0.836065574 18.4123862,0.836065574 C28.1271654,0.836065574 36.0025501,8.8440442 36.0025501,18.7223865 C36.0025501,21.9454858 35.1641505,24.9694696 33.6970123,27.581147 C31.3718154,32.9750354 27.0292276,40.4303543 20.6701769,48.1652152 C20.6324105,48.2111525 20.5923912,48.2502274 20.5501191,48.2824398 Z" id="Combined-Shape" fill="#82C989"></path>
            <ellipse id="Oval-2" fill="#220660" opacity="0.161551339" cx="18.5" cy="18.8114754" rx="9.45555556" ry="9.6147541"></ellipse>
        </g>
        <g id="pin-copy-6" transform="translate(122.000000, 89.000000)">
            <path d="M20.5501191,48.2824398 C20.0487008,48.9197015 19.2774205,49.3278689 18.4123862,49.3278689 C17.5656162,49.3278689 16.8086831,48.9367558 16.3067735,48.3224974 C16.2486829,48.2847174 16.1940035,48.23229 16.1427355,48.1652152 C9.94705153,40.0593049 4.95545637,32.2361023 2.85020489,27.0676839 C1.55536458,24.5762563 0.822222222,21.7363801 0.822222222,18.7223865 C0.822222222,8.8440442 8.69760687,0.836065574 18.4123862,0.836065574 C28.1271654,0.836065574 36.0025501,8.8440442 36.0025501,18.7223865 C36.0025501,21.9454858 35.1641505,24.9694696 33.6970123,27.581147 C31.3718154,32.9750354 27.0292276,40.4303543 20.6701769,48.1652152 C20.6324105,48.2111525 20.5923912,48.2502274 20.5501191,48.2824398 Z" id="Combined-Shape-Copy" fill="#63A989"></path>
            <ellipse id="Oval-2-Copy" fill="#220660" opacity="0.161551339" cx="18.5" cy="18.8114754" rx="9.45555556" ry="9.6147541"></ellipse>
        </g>
        <g id="pin-copy-6" transform="translate(224.000000, 64.000000)">
            <path d="M20.5501191,48.2824398 C20.0487008,48.9197015 19.2774205,49.3278689 18.4123862,49.3278689 C17.5656162,49.3278689 16.8086831,48.9367558 16.3067735,48.3224974 C16.2486829,48.2847174 16.1940035,48.23229 16.1427355,48.1652152 C9.94705153,40.0593049 4.95545637,32.2361023 2.85020489,27.0676839 C1.55536458,24.5762563 0.822222222,21.7363801 0.822222222,18.7223865 C0.822222222,8.8440442 8.69760687,0.836065574 18.4123862,0.836065574 C28.1271654,0.836065574 36.0025501,8.8440442 36.0025501,18.7223865 C36.0025501,21.9454858 35.1641505,24.9694696 33.6970123,27.581147 C31.3718154,32.9750354 27.0292276,40.4303543 20.6701769,48.1652152 C20.6324105,48.2111525 20.5923912,48.2502274 20.5501191,48.2824398 Z" id="Combined-Shape-Copy" fill="#63A989"></path>
            <ellipse id="Oval-2-Copy" fill="#220660" opacity="0.161551339" cx="18.5" cy="18.8114754" rx="9.45555556" ry="9.6147541"></ellipse>
        </g>
        <g id="pin-copy-7" transform="translate(340.000000, 101.000000)">
            <path d="M20.5501191,48.2824398 C20.0487008,48.9197015 19.2774205,49.3278689 18.4123862,49.3278689 C17.5656162,49.3278689 16.8086831,48.9367558 16.3067735,48.3224974 C16.2486829,48.2847174 16.1940035,48.23229 16.1427355,48.1652152 C9.94705153,40.0593049 4.95545637,32.2361023 2.85020489,27.0676839 C1.55536458,24.5762563 0.822222222,21.7363801 0.822222222,18.7223865 C0.822222222,8.8440442 8.69760687,0.836065574 18.4123862,0.836065574 C28.1271654,0.836065574 36.0025501,8.8440442 36.0025501,18.7223865 C36.0025501,21.9454858 35.1641505,24.9694696 33.6970123,27.581147 C31.3718154,32.9750354 27.0292276,40.4303543 20.6701769,48.1652152 C20.6324105,48.2111525 20.5923912,48.2502274 20.5501191,48.2824398 Z" id="Combined-Shape-Copy-2" fill="#3C8589"></path>
            <ellipse id="Oval-2-Copy-2" fill="#220660" opacity="0.161551339" cx="18.5" cy="18.8114754" rx="9.45555556" ry="9.6147541"></ellipse>
        </g>
        <g id="pin-copy-7" transform="translate(391.000000, 7.000000)">
            <path d="M20.5501191,48.2824398 C20.0487008,48.9197015 19.2774205,49.3278689 18.4123862,49.3278689 C17.5656162,49.3278689 16.8086831,48.9367558 16.3067735,48.3224974 C16.2486829,48.2847174 16.1940035,48.23229 16.1427355,48.1652152 C9.94705153,40.0593049 4.95545637,32.2361023 2.85020489,27.0676839 C1.55536458,24.5762563 0.822222222,21.7363801 0.822222222,18.7223865 C0.822222222,8.8440442 8.69760687,0.836065574 18.4123862,0.836065574 C28.1271654,0.836065574 36.0025501,8.8440442 36.0025501,18.7223865 C36.0025501,21.9454858 35.1641505,24.9694696 33.6970123,27.581147 C31.3718154,32.9750354 27.0292276,40.4303543 20.6701769,48.1652152 C20.6324105,48.2111525 20.5923912,48.2502274 20.5501191,48.2824398 Z" id="Combined-Shape-Copy-2" fill="#3C8589"></path>
            <ellipse id="Oval-2-Copy-2" fill="#220660" opacity="0.161551339" cx="18.5" cy="18.8114754" rx="9.45555556" ry="9.6147541"></ellipse>
        </g>
        <g id="pin-copy-7" transform="translate(293.000000, 25.000000)">
            <path d="M20.5501191,48.2824398 C20.0487008,48.9197015 19.2774205,49.3278689 18.4123862,49.3278689 C17.5656162,49.3278689 16.8086831,48.9367558 16.3067735,48.3224974 C16.2486829,48.2847174 16.1940035,48.23229 16.1427355,48.1652152 C9.94705153,40.0593049 4.95545637,32.2361023 2.85020489,27.0676839 C1.55536458,24.5762563 0.822222222,21.7363801 0.822222222,18.7223865 C0.822222222,8.8440442 8.69760687,0.836065574 18.4123862,0.836065574 C28.1271654,0.836065574 36.0025501,8.8440442 36.0025501,18.7223865 C36.0025501,21.9454858 35.1641505,24.9694696 33.6970123,27.581147 C31.3718154,32.9750354 27.0292276,40.4303543 20.6701769,48.1652152 C20.6324105,48.2111525 20.5923912,48.2502274 20.5501191,48.2824398 Z" id="Combined-Shape-Copy-2" fill="#3C8589"></path>
            <ellipse id="Oval-2-Copy-2" fill="#220660" opacity="0.161551339" cx="18.5" cy="18.8114754" rx="9.45555556" ry="9.6147541"></ellipse>
        </g>
    </g>
</svg>