<?xml version="1.0" encoding="UTF-8"?>
<svg width="1898px" height="338px" viewBox="0 0 1898 338" version="1.1" xmlns="http://www.w3.org/2000/svg" xmlns:xlink="http://www.w3.org/1999/xlink">
    <!-- Generator: Sketch 50.2 (55047) - http://www.bohemiancoding.com/sketch -->
    <title>pasadena-map copy</title>
    <desc>Created with Sketch.</desc>
    <defs></defs>
    <g id="pasadena-map-copy" stroke="none" stroke-width="1" fill="none" fill-rule="evenodd" stroke-linecap="round">
        <g id="Group-2" transform="translate(860.000000, 135.500000) scale(1, -1) translate(-860.000000, -135.500000) translate(-193.000000, -75.000000)" stroke="#F8F9FA">
            <g>
                <path d="M333,47.7820513 L333,384.633988" id="Line-Copy-3" stroke-width="7"></path>
                <path d="M354,49.7820513 L354,74.5050565" id="Line-Copy-9" stroke-width="7"></path>
                <path d="M384,48.1987179 L384,420.180039" id="Line-Copy-4" stroke-width="7"></path>
                <path d="M279,48.6136364 L279,161.501107" id="Line-Copy-17" stroke-width="7"></path>
                <path d="M279,214.613636 L279,385.506583" id="Line-Copy-51" stroke-width="7"></path>
                <path d="M223,216.613636 L223,387.506583" id="Line-Copy-52" stroke-width="7"></path>
                <path d="M224,50.498912 L224,165.390805" id="Line-Copy-19" stroke-width="7"></path>
                <path d="M426,48.1987179 L426,420.180039" id="Line-Copy-5" stroke-width="7"></path>
                <path d="M472,48.1987179 L472,420.180039" id="Line-Copy-6" stroke-width="7"></path>
                <path d="M634,75.4979509 L634,136.500754" id="Line-Copy-7" stroke-width="7"></path>
                <path d="M580,47.1488633 L580,402.313356" id="Line-Copy-13" stroke-width="7"></path>
                <path d="M580,80.0916082 L580,223.693422" id="Line-Copy-13" stroke-width="15"></path>
                <path d="M890,80.0916082 L890,223.693422" id="Line-Copy-81" stroke-width="15"></path>
                <path d="M580.946289,272.44989 L637,272.44989 C638.656854,272.44989 640,273.793036 640,275.44989 L640,394.705971" id="Line-Copy-49" stroke-width="7"></path>
                <path d="M605,193.148863 L605,207.237967" id="Line-Copy-77" stroke-width="7"></path>
                <path d="M631,193.148863 L631,207.237967" id="Line-Copy-78" stroke-width="7"></path>
                <path d="M522,46.7948718 L522,141.467471" id="Line-Copy-18" stroke-width="7"></path>
                <path d="M524,200.540064 L524,383.968225" id="Line-Copy-33" stroke-width="7"></path>
                <polyline id="Line-Copy-8" stroke-width="7" points="737 73.7948718 737 254.898437 745.787109 278.009766 745.787109 387.132812"></polyline>
                <path d="M803,47.7948718 L803,74.5046803" id="Line-Copy-10" stroke-width="7"></path>
                <path d="M723,47.7948718 L723,74.5046803" id="Line-Copy-10" stroke-width="7"></path>
                <path d="M639,45.7948718 L639,72.5046803" id="Line-Copy-53" stroke-width="7"></path>
                <path d="M890,50.1794872 L890,416.193193" id="Line-Copy-12" stroke-width="7"></path>
                <path d="M940,292.794872 L940,388.507468" id="Line-Copy-14" stroke-width="7"></path>
                <path d="M843,292.49867 L843,386.507468" id="Line-Copy-74" stroke-width="7"></path>
                <path d="M867,191.498894 L867,291.531245" id="Line-Copy-80" stroke-width="7"></path>
                <path d="M799,292.498894 L799,405.507468" id="Line-Copy-75" stroke-width="7"></path>
                <path d="M694,292.498894 L694,405.507468" id="Line-Copy-76" stroke-width="7"></path>
                <path d="M984,292.794872 L984,388.507468" id="Line-Copy-31" stroke-width="7"></path>
                <path d="M991,47.2820513 L991,134.807068" id="Line-Copy-15" stroke-width="7"></path>
                <path d="M1031,75.1858974 L1031,132.87284" id="Line-Copy-15" stroke-width="7"></path>
                <path d="M1055,47.5045045 L1055,270.504627" id="Line-Copy-16" stroke-width="7"></path>
                <path d="M1022,292.504505 L1022,386.660774" id="Line-Copy-56" stroke-width="7"></path>
                <polyline id="Line-Copy-65" stroke-width="7" points="999 288.504505 1334.44141 360.28125 1894.04688 360.28125"></polyline>
                <path d="M1055,302.504505 L1055,396.660774" id="Line-Copy-57" stroke-width="7"></path>
                <path d="M1100,314.504505 L1100,408.660774" id="Line-Copy-58" stroke-width="7"></path>
                <path d="M1192,76.4947421 L1192,134.98286" id="Line-Copy-22" stroke-width="7"></path>
                <path d="M1222,191.152239 L1222,239.566548" id="Line-Copy-47" stroke-width="7"></path>
                <path d="M1272,189.17088 L1272,243.513473" id="Line-Copy-47" stroke-width="7"></path>
                <path d="M1322,193.481571 L1322,346.628877" id="Line-Copy-47" stroke-width="7"></path>
                <path d="M1151,52.4343442 L1151,392.324643" id="Line-Copy-46" stroke-width="7"></path>
                <path d="M1224,75.5495495 L1224,139.071272" id="Line-Copy-23" stroke-width="7"></path>
                <path d="M1269,47.5495495 L1269,134.512937" id="Line-Copy-24" stroke-width="7"></path>
                <path d="M1319,74.5495495 L1319,132.863396" id="Line-Copy-25" stroke-width="7"></path>
                <path d="M1367,51.5495495 L1367,294.460397" id="Line-Copy-26" stroke-width="7"></path>
                <path d="M1396,279.616256 L1396,368.460397" id="Line-Copy-79" stroke-width="7"></path>
                <path d="M1440,50.6550802 L1440,382.518457" id="Line-Copy-27" stroke-width="15"></path>
                <path d="M1612.70508,53.7285156 C1612.70508,85.4199219 1618.3741,109.625452 1583.5,160.5 C1536.49023,229.078125 1346.56641,209.794922 1334,391.348442" id="Line-Copy-54" stroke-width="15"></path>
                <path d="M1741,48.5542986 L1741,109.211204 C1741,116.716359 1742.36267,124.159156 1745.0217,131.17748 L1753.1875,152.730469" id="Line-Copy-32" stroke-width="7"></path>
                <path d="M1863,52.5520362 L1863,272.505115" id="Line-Copy-39" stroke-width="7"></path>
                <path d="M1918,119.542986 L1907.5,192.5" id="Line-Copy-41" stroke-width="7"></path>
                <path d="M1957.5,122.5 L1946.5,269.5" id="Line-Copy-83" stroke-width="7"></path>
                <path d="M1991,50.5429864 L1984.5,118.5" id="Line-Copy-42" stroke-width="7"></path>
                <path d="M1955,50.5429864 L1948.5,118.5" id="Line-Copy-68" stroke-width="7"></path>
                <path d="M2028,48.5429864 L2021.5,116.5" id="Line-Copy-69" stroke-width="7"></path>
                <path d="M2068,50.5429864 L2048.5,274.5" id="Line-Copy-43" stroke-width="7"></path>
                <path d="M1765.36533,335.585854 L1654,335.585854" id="Line-Copy-40" stroke-width="7"></path>
                <polyline id="Line-Copy-85" stroke-width="7" points="1908.5 271.5 1901.09961 319.929688 1881.5 348.5"></polyline>
                <path d="M1708.50279,240.585854 L1559,240.585854" id="Line-Copy-73" stroke-width="7"></path>
                <path d="M1559,189.609589 L1559,277.694678" id="Line-Copy-66" stroke-width="7"></path>
                <path d="M1536,280.609589 L1536,368.694678" id="Line-Copy-72" stroke-width="7"></path>
                <path d="M1519,204.609589 L1519,278.515224" id="Line-Copy-62" stroke-width="7"></path>
                <path d="M1461,229.609589 L1461,262.884778 C1461,263.989347 1461.89543,264.884778 1463,264.884778 C1463.02303,264.884778 1463.04605,264.88438 1463.06907,264.883585 L1531.59961,262.515625" id="Line-Copy-70" stroke-width="7"></path>
                <path d="M1750,225.57652 L1750,274.530574" id="Line-Copy-30" stroke-width="15"></path>
                <path d="M2048.11719,277.675781 L2048.11719,300.28709 C2048.11719,306.272056 2048.74195,312.240673 2049.98131,318.095909 L2056,346.530574" id="Line-Copy-82" stroke-width="15"></path>
                <polyline id="Line-Copy-34" stroke-width="7" points="1658 45.6083333 1658 107.966797 1663.4082 143.703125"></polyline>
                <path d="M1698,46.6083333 L1698,105.49221 C1698,108.871239 1697.25547,112.208764 1695.81935,115.267424 L1681.55469,145.648438" id="Line-Copy-60" stroke-width="7"></path>
                <path d="M1784,49.6083333 L1784,74.6624064 C1784,79.5537508 1783.03015,84.3965519 1781.14655,88.9106744 L1754.30469,153.238281 L1750.04297,178.845703" id="Line-Copy-35" stroke-width="7"></path>
                <polyline id="Line-Copy-37" stroke-width="7" points="1834.93555 0.25 1828.69962 39.4847544 1791 208.432898"></polyline>
                <polyline id="Line-Copy-36" stroke-width="7" points="1656.18457 205.15625 1652 250.361328 1652 392.506173"></polyline>
                <path d="M1601,140.5 L1601,299.024893 C1601,306.194538 1600.22895,313.343393 1598.70015,320.348147 L1583.66602,389.232422" id="Line-Copy-55" stroke-width="15"></path>
                <path d="M1521,76.2437094 L1521,135.386905" id="Line-Copy-28" stroke-width="7"></path>
                <path d="M1483,76.2437094 L1483,135.386905" id="Line-Copy-67" stroke-width="7"></path>
                <path d="M1559,75.2437094 L1559,134.386905" id="Line-Copy-61" stroke-width="7"></path>
                <path d="M193,292.234375 L984.390625,292.234375 L1024.61217,277.056658 C1029.40043,275.249792 1034.47281,274.312228 1039.59058,274.288084 L1080.8787,274.093308 C1091.78327,274.041866 1102.62284,275.774357 1112.96813,279.222171 L1152.01172,292.234375 L1306.06118,292.234375 C1308.64092,292.234375 1311.21228,291.940772 1313.72562,291.359235 L1366.23047,279.210645 L2101.42323,279.210645" id="Line-Copy-11" stroke-width="7"></path>
                <path d="M524.531834,243.868629 L1359.66039,243.868629" id="Line-Copy-48" stroke-width="7"></path>
                <path d="M3.11232343,251.360135 L331.45289,251.360135" id="Line-Copy-48" stroke-width="7"></path>
                <path d="M333.112323,328.360135 L384.322235,328.360135" id="Line-Copy-64" stroke-width="7"></path>
                <path d="M1224.16873,218.210645 L1438.61886,218.210645" id="Line-Copy-45" stroke-width="7"></path>
                <path d="M1100.1758,338.210645 L1148.61182,338.210645" id="Line-Copy-59" stroke-width="7"></path>
                <path d="M0.121185937,48.2106453 L2105.42323,48.2106453" id="Line-Copy-44" stroke-width="7"></path>
                <path d="M737.597561,113.666667 L1031.02232,113.666667" id="Line-2" stroke-width="7"></path>
                <path d="M1033.5773,103.666667 L1096.5267,103.666667" id="Line-2-Copy-3" stroke-width="7"></path>
                <path d="M505.595409,102 L578.515429,102" id="Line-2-Copy-2" stroke-width="7"></path>
                <polyline id="Line-2-Copy-4" stroke-width="7" points="159.592094 74 1471.32812 74 1541.30859 74 1817.29297 74"></polyline>
                <path d="M193,161.158203 L419.277718,161.158203 C422.248716,161.158203 425.209463,160.80978 428.099295,160.120072 L526.094204,136.731923 C533.699026,134.916903 541.490467,134 549.308882,134 C891.417559,134 1233.52624,134 1575.63491,134 C1763.07241,134 1821.64273,274.753906 1853.69937,274.753906 C1875.07046,274.753906 1956.28265,274.753906 2097.33594,274.753906" id="Line-2-Copy" stroke-width="15" stroke-linejoin="round"></path>
                <path d="M193,184.943359 L332.058594,184.943359 L426.035516,176.55486 C426.168088,176.543026 426.300596,176.530496 426.433037,176.51727 L575.984143,161.582631 C578.881278,161.293314 581.790182,161.137336 584.701642,161.115192 C1120.70378,157.038397 1451.01487,155 1575.63491,155 C1763.07241,155 1843.81911,371.792585 2091,366.439453" id="Line-2-Copy-7" stroke-width="15" stroke-linejoin="round"></path>
                <path d="M1612.61278,72 L1815.50062,72" id="Line-2-Copy-11" stroke-width="7" opacity="0.200000003"></path>
                <path d="M1703.56595,153.333333 L1800.50702,153.333333" id="Line-2-Copy-12" stroke-width="7"></path>
                <path d="M1545.56595,194.333333 L1617.60199,194.333333 C1628.76708,194.333333 1639.80855,196.670421 1650.01611,201.194256 L1710.98612,228.215232 C1722.59722,233.361094 1735.15689,236.019531 1747.85718,236.019531 L1749.70898,236.019531" id="Line-2-Copy-15" stroke-width="7"></path>
                <path d="M1921.91602,49.4433594 L1910.62377,117.003621 C1910.44168,118.093077 1911.17724,119.123873 1912.26669,119.305969 C1912.37565,119.32418 1912.48593,119.333333 1912.59641,119.333333 L2060.7832,119.333333" id="Line-2-Copy-13" stroke-width="7"></path>
                <path d="M1913.49757,152.333333 L2056.51099,152.333333" id="Line-2-Copy-14" stroke-width="7"></path>
                <path d="M1898.47444,195.333333 L2055.5,195.333333" id="Line-2-Copy-16" stroke-width="7"></path>
                <path d="M1948.42869,233.333333 L2051.5,233.333333" id="Line-2-Copy-17" stroke-width="7"></path>
                <path d="M1948.42457,251.333333 L2050.50481,251.333333" id="Line-2-Copy-18" stroke-width="7"></path>
                <polyline id="Line-2-Copy-9" stroke-width="7" points="194.472958 213 332.098544 213 544.859189 191 1538.39608 191"></polyline>
            </g>
        </g>
    </g>
</svg>