<?xml version="1.0" encoding="UTF-8"?>
<svg width="543px" height="348px" viewBox="0 0 543 348" version="1.1" xmlns="http://www.w3.org/2000/svg" xmlns:xlink="http://www.w3.org/1999/xlink">
    <!-- Generator: Sketch 50.2 (55047) - http://www.bohemiancoding.com/sketch -->
    <title>laptop-imgs/data-points</title>
    <desc>Created with Sketch.</desc>
    <defs></defs>
    <g id="laptop-imgs/data-points" stroke="none" stroke-width="1" fill="none" fill-rule="evenodd">
        <g id="laptop-plus-data-points" transform="translate(10.000000, -16.000000)">
            <g id="data-points" transform="translate(395.500000, 126.500000) scale(-1, 1) translate(-395.500000, -126.500000) translate(359.000000, 91.000000)">
                <g id="light-grn" transform="translate(26.000000, 0.000000)">
                    <ellipse id="Oval-2" fill-opacity="0.301856884" fill="#014866" cx="9" cy="25" rx="5" ry="2"></ellipse>
                    <path d="M9,24.730957 C13.9705627,24.730957 18,13.9705627 18,9 C18,4.02943725 13.9705627,0 9,0 C4.02943725,0 0,4.02943725 0,9 C0,13.9705627 4.02943725,24.730957 9,24.730957 Z" id="Oval" fill="#9AD5A0"></path>
                    <circle id="Oval-2" fill-opacity="0.301856884" fill="#014866" cx="9" cy="9" r="4"></circle>
                </g>
                <g id="light-grn" transform="translate(0.000000, 36.000000)">
                    <ellipse id="Oval-2" fill-opacity="0.301856884" fill="#014866" cx="9" cy="25" rx="5" ry="2"></ellipse>
                    <path d="M9,24.730957 C13.9705627,24.730957 18,13.9705627 18,9 C18,4.02943725 13.9705627,0 9,0 C4.02943725,0 0,4.02943725 0,9 C0,13.9705627 4.02943725,24.730957 9,24.730957 Z" id="Oval" fill="#9AD5A0"></path>
                    <circle id="Oval-2" fill-opacity="0.301856884" fill="#014866" cx="9" cy="9" r="4"></circle>
                </g>
                <g id="light-grn" transform="translate(55.000000, 46.000000)">
                    <ellipse id="Oval-2" fill-opacity="0.301856884" fill="#014866" cx="9" cy="25" rx="5" ry="2"></ellipse>
                    <path d="M9,24.730957 C13.9705627,24.730957 18,13.9705627 18,9 C18,4.02943725 13.9705627,0 9,0 C4.02943725,0 0,4.02943725 0,9 C0,13.9705627 4.02943725,24.730957 9,24.730957 Z" id="Oval" fill="#9AD5A0"></path>
                    <circle id="Oval-2" fill-opacity="0.301856884" fill="#014866" cx="9" cy="9" r="4"></circle>
                </g>
            </g>
        </g>
        <g id="light-grn-copy-3" transform="translate(385.000000, 167.000000)">
            <ellipse id="Oval-2" fill-opacity="0.301856884" fill="#014866" cx="9" cy="25" rx="5" ry="2"></ellipse>
            <path d="M9,24.730957 C13.9705627,24.730957 18,13.9705627 18,9 C18,4.02943725 13.9705627,0 9,0 C4.02943725,0 0,4.02943725 0,9 C0,13.9705627 4.02943725,24.730957 9,24.730957 Z" id="Oval" fill="#63A989"></path>
            <circle id="Oval-2" fill-opacity="0.301856884" fill="#014866" cx="9" cy="9" r="4"></circle>
        </g>
        <g id="light-grn-copy-3" transform="translate(333.000000, 180.000000)">
            <ellipse id="Oval-2" fill-opacity="0.301856884" fill="#014866" cx="9" cy="25" rx="5" ry="2"></ellipse>
            <path d="M9,24.730957 C13.9705627,24.730957 18,13.9705627 18,9 C18,4.02943725 13.9705627,0 9,0 C4.02943725,0 0,4.02943725 0,9 C0,13.9705627 4.02943725,24.730957 9,24.730957 Z" id="Oval" fill="#63A989"></path>
            <circle id="Oval-2" fill-opacity="0.301856884" fill="#014866" cx="9" cy="9" r="4"></circle>
        </g>
        <g id="light-grn-copy-3" transform="translate(376.000000, 217.000000)">
            <ellipse id="Oval-2" fill-opacity="0.301856884" fill="#014866" cx="9" cy="25" rx="5" ry="2"></ellipse>
            <path d="M9,24.730957 C13.9705627,24.730957 18,13.9705627 18,9 C18,4.02943725 13.9705627,0 9,0 C4.02943725,0 0,4.02943725 0,9 C0,13.9705627 4.02943725,24.730957 9,24.730957 Z" id="Oval" fill="#63A989"></path>
            <circle id="Oval-2" fill-opacity="0.301856884" fill="#014866" cx="9" cy="9" r="4"></circle>
        </g>
        <g id="light-grn-copy-3" transform="translate(425.000000, 190.000000)">
            <ellipse id="Oval-2" fill-opacity="0.301856884" fill="#014866" cx="9" cy="25" rx="5" ry="2"></ellipse>
            <path d="M9,24.730957 C13.9705627,24.730957 18,13.9705627 18,9 C18,4.02943725 13.9705627,0 9,0 C4.02943725,0 0,4.02943725 0,9 C0,13.9705627 4.02943725,24.730957 9,24.730957 Z" id="Oval" fill="#63A989"></path>
            <circle id="Oval-2" fill-opacity="0.301856884" fill="#014866" cx="9" cy="9" r="4"></circle>
        </g>
        <g id="light-grn-copy-4" transform="translate(268.000000, 195.000000)">
            <ellipse id="Oval-2" fill-opacity="0.301856884" fill="#014866" cx="9" cy="25" rx="5" ry="2"></ellipse>
            <path d="M9,24.730957 C13.9705627,24.730957 18,13.9705627 18,9 C18,4.02943725 13.9705627,0 9,0 C4.02943725,0 0,4.02943725 0,9 C0,13.9705627 4.02943725,24.730957 9,24.730957 Z" id="Oval" fill="#3A8090"></path>
            <circle id="Oval-2" fill-opacity="0.301856884" fill="#014866" cx="9" cy="9" r="4"></circle>
        </g>
        <g id="light-grn-copy-4" transform="translate(226.000000, 245.000000)">
            <ellipse id="Oval-2" fill-opacity="0.301856884" fill="#014866" cx="9" cy="25" rx="5" ry="2"></ellipse>
            <path d="M9,24.730957 C13.9705627,24.730957 18,13.9705627 18,9 C18,4.02943725 13.9705627,0 9,0 C4.02943725,0 0,4.02943725 0,9 C0,13.9705627 4.02943725,24.730957 9,24.730957 Z" id="Oval" fill="#3A8090"></path>
            <circle id="Oval-2" fill-opacity="0.301856884" fill="#014866" cx="9" cy="9" r="4"></circle>
        </g>
        <g id="light-grn-copy-4" transform="translate(304.000000, 232.000000)">
            <ellipse id="Oval-2" fill-opacity="0.301856884" fill="#014866" cx="9" cy="25" rx="5" ry="2"></ellipse>
            <path d="M9,24.730957 C13.9705627,24.730957 18,13.9705627 18,9 C18,4.02943725 13.9705627,0 9,0 C4.02943725,0 0,4.02943725 0,9 C0,13.9705627 4.02943725,24.730957 9,24.730957 Z" id="Oval" fill="#3A8090"></path>
            <circle id="Oval-2" fill-opacity="0.301856884" fill="#014866" cx="9" cy="9" r="4"></circle>
        </g>
    </g>
</svg>